<?xml version="1.0" encoding="UTF-8" standalone="no"?>
<!-- Uploaded to: SVG Repo, www.svgrepo.com, Generator: SVG Repo Mixer Tools -->

<svg
   height="128"
   width="128"
   version="1.1"
   id="Capa_1"
   viewBox="0 0 2.25248 2.25248"
   xml:space="preserve"
   sodipodi:docname="dust_icon.svg"
   inkscape:version="1.4.3 (0d15f75042, 2025-12-25)"
   xmlns:inkscape="http://www.inkscape.org/namespaces/inkscape"
   xmlns:sodipodi="http://sodipodi.sourceforge.net/DTD/sodipodi-0.dtd"
   xmlns="http://www.w3.org/2000/svg"
   xmlns:svg="http://www.w3.org/2000/svg"><sodipodi:namedview
   id="namedview54"
   pagecolor="#ffffff"
   bordercolor="#000000"
   borderopacity="0.25"
   inkscape:showpageshadow="2"
   inkscape:pageopacity="0.0"
   inkscape:pagecheckerboard="0"
   inkscape:deskcolor="#d1d1d1"
   inkscape:zoom="2.8925"
   inkscape:cx="17.631806"
   inkscape:cy="16.076059"
   inkscape:window-width="2560"
   inkscape:window-height="1366"
   inkscape:window-x="0"
   inkscape:window-y="0"
   inkscape:window-maximized="1"
   inkscape:current-layer="Capa_1" /><defs
   id="defs54" />
<g
   id="g54"
   transform="matrix(0.15986507,0,0,0.15986507,0,0.01679679)">
	<g
   id="g53">
		<path
   style="fill:#fc7f7f;fill-opacity:1"
   d="m 10.348,1.244 h 0.208 c 0.222,0 0.401,-0.18 0.401,-0.402 0,-0.222 -0.18,-0.402 -0.401,-0.402 h -0.208 c -0.222,0 -0.401,0.18 -0.401,0.402 0,0.222 0.179,0.402 0.401,0.402 z"
   id="path1" />
		<path
   style="fill:#fc7f7f;fill-opacity:1"
   d="m 6.624,1.244 h 0.207 c 0.222,0 0.401,-0.18 0.401,-0.402 C 7.232,0.62 7.052,0.44 6.831,0.44 H 6.624 c -0.222,0 -0.401,0.18 -0.401,0.402 0,0.222 0.18,0.402 0.401,0.402 z"
   id="path2" />
		<path
   style="fill:#fc7f7f;fill-opacity:1"
   d="M 4.763,1.244 H 4.97 c 0.223,0 0.402,-0.18 0.402,-0.402 C 5.372,0.62 5.192,0.44 4.97,0.44 H 4.763 c -0.222,0 -0.402,0.18 -0.402,0.402 0,0.222 0.179,0.402 0.402,0.402 z"
   id="path3" />
		<path
   style="fill:#fc7f7f;fill-opacity:1"
   d="m 8.487,1.244 h 0.207 c 0.222,0 0.401,-0.18 0.401,-0.402 C 9.095,0.62 8.915,0.44 8.694,0.44 H 8.487 c -0.222,0 -0.401,0.18 -0.401,0.402 0,0.222 0.179,0.402 0.401,0.402 z"
   id="path4" />
		<path
   style="fill:#fc7f7f;fill-opacity:1"
   d="m 12.155,1.646 h 0.206 c 0.223,0 0.402,-0.18 0.402,-0.402 0,-0.222 -0.18,-0.402 -0.402,-0.402 h -0.206 c -0.223,0 -0.402,0.18 -0.402,0.402 0,0.222 0.179,0.402 0.402,0.402 z"
   id="path5" />
		<path
   style="fill:#fc7f7f;fill-opacity:1"
   d="m 2.69,1.244 h 0.207 c 0.222,0 0.402,-0.18 0.402,-0.402 C 3.299,0.62 3.119,0.44 2.897,0.44 H 2.69 c -0.222,0 -0.402,0.18 -0.402,0.402 0,0.222 0.18,0.402 0.402,0.402 z"
   id="path6" />
		<path
   style="fill:#fc7f7f;fill-opacity:1"
   d="m 8.754,2.504 c 0,0.222 0.18,0.402 0.402,0.402 h 0.206 c 0.223,0 0.402,-0.18 0.402,-0.402 0,-0.222 -0.18,-0.402 -0.402,-0.402 H 9.157 c -0.223,0 -0.403,0.18 -0.403,0.402 z"
   id="path7" />
		<path
   style="fill:#fc7f7f;fill-opacity:1"
   d="m 1.708,2.906 h 0.207 c 0.222,0 0.402,-0.18 0.402,-0.402 0,-0.222 -0.18,-0.402 -0.402,-0.402 H 1.708 c -0.222,0 -0.402,0.18 -0.402,0.402 0,0.222 0.18,0.402 0.402,0.402 z"
   id="path8" />
		<path
   style="fill:#fc7f7f;fill-opacity:1"
   d="m 10.616,2.504 c 0,0.222 0.18,0.402 0.402,0.402 h 0.207 c 0.223,0 0.402,-0.18 0.402,-0.402 0,-0.222 -0.18,-0.402 -0.402,-0.402 h -0.207 c -0.223,0 -0.402,0.18 -0.402,0.402 z"
   id="path9" />
		<path
   style="fill:#fc7f7f;fill-opacity:1"
   d="m 5.031,2.504 c 0,0.222 0.18,0.402 0.401,0.402 H 5.639 C 5.861,2.906 6.04,2.726 6.04,2.504 6.04,2.282 5.86,2.102 5.639,2.102 H 5.432 c -0.222,0 -0.401,0.18 -0.401,0.402 z"
   id="path10" />
		<path
   style="fill:#fc7f7f;fill-opacity:1"
   d="m 6.892,2.504 c 0,0.222 0.18,0.402 0.402,0.402 h 0.207 c 0.222,0 0.401,-0.18 0.401,-0.402 0,-0.222 -0.18,-0.402 -0.401,-0.402 H 7.294 c -0.222,0 -0.402,0.18 -0.402,0.402 z"
   id="path11" />
		<path
   style="fill:#fc7f7f;fill-opacity:1"
   d="m 3.168,2.504 c 0,0.222 0.18,0.402 0.401,0.402 h 0.208 c 0.222,0 0.402,-0.18 0.402,-0.402 0,-0.222 -0.18,-0.402 -0.402,-0.402 H 3.569 c -0.221,0 -0.401,0.18 -0.401,0.402 z"
   id="path12" />
		<path
   style="fill:#fc7f7f;fill-opacity:1"
   d="m 12.478,2.504 c 0,0.222 0.18,0.402 0.402,0.402 h 0.206 c 0.223,0 0.402,-0.18 0.402,-0.402 0,-0.222 -0.18,-0.402 -0.402,-0.402 H 12.88 c -0.222,0 -0.402,0.18 -0.402,0.402 z"
   id="path13" />
		<path
   style="fill:#fc7f7f;fill-opacity:1"
   d="M 4.768,4.312 C 4.768,4.09 4.588,3.91 4.366,3.91 H 4.159 c -0.222,0 -0.402,0.18 -0.402,0.402 0,0.222 0.18,0.402 0.402,0.402 h 0.207 c 0.223,0 0.402,-0.18 0.402,-0.402 z"
   id="path14" />
		<path
   style="fill:#fc7f7f;fill-opacity:1"
   d="M 6.022,4.714 H 6.229 C 6.451,4.714 6.63,4.534 6.63,4.312 6.63,4.09 6.45,3.91 6.229,3.91 H 6.022 C 5.8,3.91 5.62,4.09 5.62,4.312 c 0,0.222 0.18,0.402 0.402,0.402 z"
   id="path15" />
		<path
   style="fill:#fc7f7f;fill-opacity:1"
   d="m 9.745,4.714 h 0.207 c 0.223,0 0.402,-0.18 0.402,-0.402 0,-0.222 -0.18,-0.402 -0.402,-0.402 H 9.745 c -0.222,0 -0.401,0.18 -0.401,0.402 0,0.222 0.18,0.402 0.401,0.402 z"
   id="path16" />
		<path
   style="fill:#fc7f7f;fill-opacity:1"
   d="m 7.884,4.714 h 0.207 c 0.222,0 0.401,-0.18 0.401,-0.402 C 8.492,4.09 8.312,3.91 8.091,3.91 H 7.884 c -0.223,0 -0.402,0.18 -0.402,0.402 0,0.222 0.179,0.402 0.402,0.402 z"
   id="path17" />
		<path
   style="fill:#fc7f7f;fill-opacity:1"
   d="m 13.068,4.312 c 0,0.222 0.18,0.402 0.402,0.402 h 0.206 c 0.223,0 0.402,-0.18 0.402,-0.402 0,-0.222 -0.18,-0.402 -0.402,-0.402 H 13.47 c -0.223,0 -0.402,0.18 -0.402,0.402 z"
   id="path18" />
		<path
   style="fill:#fc7f7f;fill-opacity:1"
   d="m 11.608,4.714 h 0.207 c 0.222,0 0.401,-0.18 0.401,-0.402 0,-0.222 -0.18,-0.402 -0.401,-0.402 h -0.207 c -0.223,0 -0.402,0.18 -0.402,0.402 0,0.222 0.179,0.402 0.402,0.402 z"
   id="path19" />
		<path
   style="fill:#fc7f7f;fill-opacity:1"
   d="M 2.907,4.312 C 2.907,4.09 2.727,3.91 2.505,3.91 H 2.298 c -0.222,0 -0.402,0.18 -0.402,0.402 0,0.222 0.18,0.402 0.402,0.402 h 0.207 c 0.222,0 0.402,-0.18 0.402,-0.402 z"
   id="path20" />
		<path
   style="fill:#fc7f7f;fill-opacity:1"
   d="m 0.436,4.714 h 0.207 c 0.222,0 0.402,-0.18 0.402,-0.402 C 1.045,4.09 0.865,3.91 0.643,3.91 H 0.436 c -0.222,0 -0.402,0.18 -0.402,0.402 0,0.222 0.18,0.402 0.402,0.402 z"
   id="path21" />
		<path
   style="fill:#fc7f7f;fill-opacity:1"
   d="M 1.647,6.053 C 1.647,5.831 1.467,5.652 1.245,5.652 H 1.039 c -0.222,0 -0.402,0.18 -0.402,0.401 0,0.223 0.18,0.402 0.402,0.402 h 0.207 c 0.222,0 0.401,-0.179 0.401,-0.402 z"
   id="path22" />
		<path
   style="fill:#fc7f7f;fill-opacity:1"
   d="m 12.417,6.455 c 0.222,0 0.401,-0.18 0.401,-0.402 0,-0.222 -0.18,-0.401 -0.401,-0.401 H 12.21 c -0.222,0 -0.401,0.18 -0.401,0.401 0,0.223 0.18,0.402 0.401,0.402 z"
   id="path23" />
		<path
   style="fill:#fc7f7f;fill-opacity:1"
   d="m 8.694,6.455 c 0.222,0 0.401,-0.18 0.401,-0.402 0,-0.222 -0.18,-0.401 -0.401,-0.401 H 8.487 c -0.222,0 -0.401,0.18 -0.401,0.401 0,0.223 0.18,0.402 0.401,0.402 z"
   id="path24" />
		<path
   style="fill:#fc7f7f;fill-opacity:1"
   d="m 6.831,6.455 c 0.222,0 0.401,-0.18 0.401,-0.402 0,-0.222 -0.18,-0.401 -0.401,-0.401 H 6.624 c -0.222,0 -0.401,0.18 -0.401,0.401 0,0.223 0.18,0.402 0.401,0.402 z"
   id="path25" />
		<path
   style="fill:#fc7f7f;fill-opacity:1"
   d="M 4.763,6.455 H 4.97 c 0.223,0 0.402,-0.18 0.402,-0.402 0,-0.222 -0.18,-0.401 -0.402,-0.401 H 4.763 c -0.222,0 -0.402,0.18 -0.402,0.401 0,0.223 0.179,0.402 0.402,0.402 z"
   id="path26" />
		<path
   style="fill:#fc7f7f;fill-opacity:1"
   d="m 10.556,6.455 c 0.222,0 0.401,-0.18 0.401,-0.402 0,-0.222 -0.18,-0.401 -0.401,-0.401 h -0.208 c -0.222,0 -0.401,0.18 -0.401,0.401 0,0.223 0.18,0.402 0.401,0.402 z"
   id="path27" />
		<path
   style="fill:#fc7f7f;fill-opacity:1"
   d="M 2.9,6.455 H 3.108 C 3.33,6.455 3.51,6.275 3.51,6.053 3.51,5.831 3.33,5.652 3.108,5.652 H 2.9 c -0.222,0 -0.402,0.18 -0.402,0.401 0,0.223 0.18,0.402 0.402,0.402 z"
   id="path28" />
		<path
   style="fill:#fc7f7f;fill-opacity:1"
   d="m 9.157,8.33 h 0.206 c 0.223,0 0.402,-0.18 0.402,-0.401 0,-0.223 -0.18,-0.402 -0.402,-0.402 H 9.157 C 8.934,7.527 8.755,7.707 8.755,7.929 8.754,8.151 8.934,8.33 9.157,8.33 Z"
   id="path29" />
		<path
   style="fill:#fc7f7f;fill-opacity:1"
   d="M 4.179,7.929 C 4.179,7.706 3.999,7.527 3.777,7.527 H 3.569 c -0.222,0 -0.401,0.18 -0.401,0.402 0,0.222 0.18,0.401 0.401,0.401 h 0.208 c 0.222,0 0.402,-0.179 0.402,-0.401 z"
   id="path30" />
		<path
   style="fill:#fc7f7f;fill-opacity:1"
   d="m 11.018,8.33 h 0.207 c 0.223,0 0.402,-0.18 0.402,-0.401 0,-0.223 -0.18,-0.402 -0.402,-0.402 h -0.207 c -0.223,0 -0.402,0.18 -0.402,0.402 0,0.222 0.179,0.401 0.402,0.401 z"
   id="path31" />
		<path
   style="fill:#fc7f7f;fill-opacity:1"
   d="m 7.294,8.33 h 0.207 c 0.222,0 0.401,-0.18 0.401,-0.401 0,-0.223 -0.18,-0.402 -0.401,-0.402 H 7.294 c -0.223,0 -0.402,0.18 -0.402,0.402 0,0.222 0.18,0.401 0.402,0.401 z"
   id="path32" />
		<path
   style="fill:#fc7f7f;fill-opacity:1"
   d="M 5.432,8.33 H 5.639 C 5.861,8.33 6.04,8.15 6.04,7.929 6.04,7.706 5.86,7.527 5.639,7.527 H 5.432 c -0.222,0 -0.401,0.18 -0.401,0.402 0,0.222 0.179,0.401 0.401,0.401 z"
   id="path33" />
		<path
   style="fill:#fc7f7f;fill-opacity:1"
   d="M 2.317,7.929 C 2.317,7.706 2.137,7.527 1.915,7.527 H 1.708 c -0.222,0 -0.402,0.18 -0.402,0.402 0,0.222 0.18,0.401 0.402,0.401 h 0.207 c 0.222,0 0.402,-0.179 0.402,-0.401 z"
   id="path34" />
		<path
   style="fill:#fc7f7f;fill-opacity:1"
   d="m 13.489,7.929 c 0,-0.223 -0.18,-0.402 -0.402,-0.402 h -0.206 c -0.223,0 -0.402,0.18 -0.402,0.402 0,0.222 0.18,0.401 0.402,0.401 h 0.206 c 0.222,0 0.402,-0.179 0.402,-0.401 z"
   id="path35" />
		<path
   style="fill:#fc7f7f;fill-opacity:1"
   d="m 9.712,10.022 h 0.207 c 0.222,0 0.401,-0.18 0.401,-0.401 0,-0.223 -0.18,-0.402 -0.401,-0.402 H 9.712 c -0.223,0 -0.402,0.18 -0.402,0.402 0,0.221 0.18,0.401 0.402,0.401 z"
   id="path36" />
		<path
   style="fill:#fc7f7f;fill-opacity:1"
   d="m 7.85,10.022 h 0.207 c 0.222,0 0.402,-0.18 0.402,-0.401 0,-0.223 -0.181,-0.402 -0.402,-0.402 H 7.85 c -0.222,0 -0.401,0.18 -0.401,0.402 0,0.221 0.179,0.401 0.401,0.401 z"
   id="path37" />
		<path
   style="fill:#fc7f7f;fill-opacity:1"
   d="m 11.574,10.022 h 0.207 c 0.223,0 0.402,-0.18 0.402,-0.401 0,-0.223 -0.18,-0.402 -0.402,-0.402 h -0.207 c -0.222,0 -0.401,0.18 -0.401,0.402 -10e-4,0.221 0.179,0.401 0.401,0.401 z"
   id="path38" />
		<path
   style="fill:#fc7f7f;fill-opacity:1"
   d="m 13.643,9.218 h -0.207 c -0.222,0 -0.401,0.18 -0.401,0.402 0,0.222 0.18,0.401 0.401,0.401 h 0.207 c 0.222,0 0.401,-0.18 0.401,-0.401 0,-0.222 -0.179,-0.402 -0.401,-0.402 z"
   id="path39" />
		<path
   style="fill:#fc7f7f;fill-opacity:1"
   d="M 2.873,9.621 C 2.873,9.398 2.693,9.219 2.471,9.219 H 2.264 c -0.222,0 -0.402,0.18 -0.402,0.402 0,0.222 0.18,0.401 0.402,0.401 h 0.207 c 0.222,0 0.402,-0.18 0.402,-0.401 z"
   id="path40" />
		<path
   style="fill:#fc7f7f;fill-opacity:1"
   d="m 5.988,10.022 h 0.207 c 0.223,0 0.402,-0.18 0.402,-0.401 0,-0.223 -0.18,-0.402 -0.402,-0.402 H 5.988 c -0.222,0 -0.401,0.18 -0.401,0.402 -10e-4,0.221 0.179,0.401 0.401,0.401 z"
   id="path41" />
		<path
   style="fill:#fc7f7f;fill-opacity:1"
   d="M 0.609,9.218 H 0.402 C 0.18,9.218 0,9.398 0,9.62 c 0,0.222 0.18,0.401 0.402,0.401 h 0.207 c 0.222,0 0.402,-0.18 0.402,-0.401 0,-0.222 -0.18,-0.402 -0.402,-0.402 z"
   id="path42" />
		<path
   style="fill:#fc7f7f;fill-opacity:1"
   d="M 4.735,9.621 C 4.735,9.398 4.555,9.219 4.333,9.219 H 4.126 c -0.222,0 -0.402,0.18 -0.402,0.402 0,0.222 0.18,0.401 0.402,0.401 h 0.207 c 0.222,0 0.402,-0.18 0.402,-0.401 z"
   id="path43" />
		<path
   style="fill:#fc7f7f;fill-opacity:1"
   d="m 12.383,10.959 h -0.206 c -0.223,0 -0.402,0.18 -0.402,0.402 0,0.222 0.18,0.401 0.402,0.401 h 0.206 c 0.223,0 0.402,-0.18 0.402,-0.401 10e-4,-0.222 -0.179,-0.402 -0.402,-0.402 z"
   id="path44" />
		<path
   style="fill:#fc7f7f;fill-opacity:1"
   d="M 7.2,11.362 C 7.2,11.139 7.02,10.96 6.798,10.96 H 6.592 c -0.223,0 -0.402,0.18 -0.402,0.402 0,0.222 0.18,0.401 0.402,0.401 h 0.206 c 0.222,0 0.402,-0.18 0.402,-0.401 z"
   id="path45" />
		<path
   style="fill:#fc7f7f;fill-opacity:1"
   d="M 3.074,10.959 H 2.867 c -0.222,0 -0.402,0.18 -0.402,0.402 0,0.222 0.18,0.401 0.402,0.401 h 0.208 c 0.222,0 0.402,-0.18 0.402,-0.401 C 3.476,11.139 3.296,10.959 3.074,10.959 Z"
   id="path46" />
		<path
   style="fill:#fc7f7f;fill-opacity:1"
   d="m 10.924,11.362 c 0,-0.223 -0.181,-0.402 -0.402,-0.402 h -0.207 c -0.223,0 -0.402,0.18 -0.402,0.402 0,0.222 0.18,0.401 0.402,0.401 h 0.207 c 0.222,0 0.402,-0.18 0.402,-0.401 z"
   id="path47" />
		<path
   style="fill:#fc7f7f;fill-opacity:1"
   d="M 9.062,11.362 C 9.062,11.139 8.882,10.96 8.66,10.96 H 8.453 c -0.222,0 -0.401,0.18 -0.401,0.402 0,0.222 0.18,0.401 0.401,0.401 H 8.66 c 0.222,0 0.402,-0.18 0.402,-0.401 z"
   id="path48" />
		<path
   style="fill:#fc7f7f;fill-opacity:1"
   d="m 5.337,11.362 c 0,-0.223 -0.18,-0.402 -0.401,-0.402 H 4.729 c -0.222,0 -0.402,0.18 -0.402,0.402 0,0.222 0.18,0.401 0.402,0.401 h 0.207 c 0.222,0 0.401,-0.18 0.401,-0.401 z"
   id="path49" />
		<path
   style="fill:#fc7f7f;fill-opacity:1"
   d="M 7.467,12.834 H 7.26 c -0.222,0 -0.401,0.181 -0.401,0.402 0,0.221 0.18,0.402 0.401,0.402 h 0.207 c 0.222,0 0.402,-0.181 0.402,-0.402 0,-0.221 -0.18,-0.402 -0.402,-0.402 z"
   id="path50" />
		<path
   style="fill:#fc7f7f;fill-opacity:1"
   d="m 11.192,12.834 h -0.208 c -0.222,0 -0.401,0.181 -0.401,0.402 0,0.221 0.18,0.402 0.401,0.402 h 0.208 c 0.222,0 0.401,-0.181 0.401,-0.402 0,-0.221 -0.18,-0.402 -0.401,-0.402 z"
   id="path51" />
		<path
   style="fill:#fc7f7f;fill-opacity:1"
   d="M 9.329,12.834 H 9.122 c -0.222,0 -0.401,0.181 -0.401,0.402 0,0.221 0.18,0.402 0.401,0.402 h 0.207 c 0.222,0 0.401,-0.181 0.401,-0.402 0,-0.221 -0.179,-0.402 -0.401,-0.402 z"
   id="path52" />
		<path
   style="fill:#fc7f7f;fill-opacity:1"
   d="M 5.605,12.834 H 5.398 c -0.222,0 -0.401,0.181 -0.401,0.402 0,0.221 0.18,0.402 0.401,0.402 h 0.207 c 0.223,0 0.402,-0.181 0.402,-0.402 0,-0.221 -0.179,-0.402 -0.402,-0.402 z"
   id="path53" />
	</g>
</g>
</svg>
